<svg width="70" height="70" viewBox="0 0 70 70" fill="none" xmlns="http://www.w3.org/2000/svg">
<rect width="70" height="70" rx="35" fill="#1760D7"/>
<g clip-path="url(#clip0_513_417)">
<path d="M49.9838 21.0479C49.9701 20.9401 49.9463 20.8363 49.907 20.739C49.9057 20.7366 49.9057 20.7332 49.9051 20.7302C49.9051 20.7295 49.9045 20.7289 49.9039 20.7284C49.8605 20.6258 49.8013 20.5327 49.7345 20.4463C49.718 20.4259 49.7019 20.4057 49.6845 20.3866C49.613 20.3059 49.5355 20.2315 49.4455 20.1708C49.4431 20.1689 49.44 20.1684 49.4376 20.1665C49.3505 20.1091 49.2545 20.0658 49.1537 20.0316C49.1287 20.0227 49.1043 20.0152 49.0787 20.0084C48.973 19.9798 48.8645 19.959 48.75 19.959H40C39.31 19.959 38.75 20.519 38.75 21.209C38.75 21.899 39.31 22.459 40 22.459H45.7318L38.2712 29.9196C36.2817 28.3285 33.8324 27.459 31.25 27.459C25.047 27.459 20 32.506 20 38.709C20 44.912 25.047 49.959 31.25 49.959C37.453 49.959 42.5 44.912 42.5 38.709C42.5 36.1277 41.6312 33.6791 40.0387 31.6878L47.5 24.2266V29.959C47.5 30.649 48.06 31.209 48.75 31.209C49.44 31.209 50 30.649 50 29.959V21.209C50 21.1827 49.9939 21.1577 49.9923 21.1321C49.9904 21.1039 49.9876 21.0759 49.9838 21.0479ZM31.25 47.459C26.4248 47.459 22.5 43.5341 22.5 38.709C22.5 33.8838 26.4248 29.959 31.25 29.959C33.5861 29.959 35.7855 30.8684 37.4393 32.5163C39.0905 34.1734 40 36.3729 40 38.709C40 43.5341 36.0752 47.459 31.25 47.459Z" fill="white"/>
</g>
<defs>
<clipPath id="clip0_513_417">
<rect width="30" height="30" fill="white" transform="translate(20 19.959)"/>
</clipPath>
</defs>
</svg>
