<svg width="659" height="585" viewBox="0 0 659 585" fill="none" xmlns="http://www.w3.org/2000/svg">
<g opacity="0.07" clip-path="url(#clip0_1_302)">
<path d="M346.415 256C344.95 256.648 343.525 257.384 342.15 258.205C340.718 259.094 339.412 260.168 338.264 261.401C337.029 262.402 335.95 263.582 335.063 264.902C334.274 266.372 333.594 267.899 333.029 269.47C331.618 272.431 330.921 275.682 330.993 278.962C330.756 282.253 331.247 285.555 332.429 288.635C333.612 291.716 335.457 294.498 337.834 296.786C340.03 299.211 342.708 301.151 345.697 302.482C348.686 303.813 351.92 304.505 355.192 304.514C358.483 304.75 361.785 304.259 364.865 303.077C367.946 301.894 370.728 300.049 373.016 297.672C375.266 295.346 377.044 292.606 378.25 289.603C379.606 286.605 380.356 283.369 380.458 280.08C380.561 276.792 380.013 273.515 378.846 270.439C377.676 267.353 375.907 264.529 373.64 262.131C371.373 259.732 368.654 257.806 365.639 256.464C362.624 255.121 359.373 254.389 356.073 254.309C352.774 254.23 349.492 254.804 346.415 256ZM497.769 -40.3063C452.599 -60.4175 402.479 -66.6825 353.748 -58.3089C305.016 -49.9354 259.863 -27.2994 223.996 6.73649C188.13 40.7724 163.162 84.6796 152.249 132.906C141.337 181.132 144.97 231.511 162.69 277.672C180.409 323.833 211.42 363.703 251.799 392.24C292.178 420.778 340.112 436.7 389.541 437.994C438.969 439.289 487.671 425.897 529.489 399.512C571.306 373.127 604.36 334.935 624.471 289.764C637.825 259.772 645.14 227.444 645.999 194.624C646.859 161.805 641.245 129.138 629.48 98.4881C617.715 67.8382 600.028 39.8058 577.429 15.9915C554.83 -7.82292 527.761 -26.9529 497.769 -40.3063V-40.3063ZM314.738 370.789C278.601 354.7 248.047 328.257 226.939 294.803C205.832 261.349 195.118 222.387 196.153 182.845C197.189 143.302 209.927 104.954 232.757 72.6511C255.586 40.3478 287.482 15.5397 324.411 1.36401C361.34 -12.8117 401.644 -15.7183 440.224 -6.98836C478.805 1.7416 513.931 21.7161 541.16 50.4092C568.389 79.1023 586.497 115.225 593.196 154.21C599.895 193.195 594.883 233.291 578.794 269.427C557.219 317.885 517.279 355.787 467.759 374.796C418.238 393.805 363.195 392.364 314.738 370.789V370.789ZM446.927 73.8869C434.896 68.5211 421.664 66.4188 408.562 67.7916C395.46 69.1644 382.951 73.9638 372.294 81.707C369.484 83.5707 367.08 85.9835 365.227 88.8003C363.374 91.6171 362.11 94.7797 361.511 98.0977C360.911 101.416 360.99 104.821 361.74 108.108C362.491 111.395 363.899 114.496 365.88 117.225C367.86 119.954 370.372 122.254 373.265 123.986C376.157 125.719 379.37 126.849 382.71 127.308C386.051 127.767 389.449 127.545 392.702 126.657C395.954 125.768 398.993 124.231 401.636 122.137C405.2 119.548 409.385 117.946 413.767 117.494C418.149 117.042 422.573 117.756 426.59 119.564C432.647 122.261 437.385 127.254 439.761 133.444C442.137 139.634 441.957 146.514 439.26 152.571C436.564 158.628 431.571 163.366 425.381 165.742C419.191 168.118 412.311 167.938 406.253 165.241C400.196 162.545 393.316 162.364 387.126 164.741C380.936 167.117 375.943 171.854 373.246 177.912L363.078 200.75C360.381 206.807 360.201 213.688 362.577 219.878C364.953 226.068 369.691 231.061 375.748 233.757C381.805 236.454 388.686 236.634 394.876 234.258C401.066 231.882 406.058 227.144 408.755 221.087L410.585 216.976C428.13 218.22 445.555 213.259 459.812 202.958C474.07 192.658 484.253 177.674 488.583 160.626C492.913 143.578 491.113 125.551 483.499 109.696C475.884 93.8403 462.939 81.1655 446.927 73.8869V73.8869Z" fill="white"/>
</g>
<defs>
<clipPath id="clip0_1_302">
<rect width="600" height="600" fill="white" transform="translate(244.042 -208) rotate(24)"/>
</clipPath>
</defs>
</svg>
