<svg width="14" height="14" viewBox="0 0 14 14" fill="none" xmlns="http://www.w3.org/2000/svg">
<path d="M13.5 5.44664C13.4579 5.3247 13.3813 5.21759 13.2795 5.13831C13.1778 5.05903 13.0552 5.01097 12.9267 4.99997L9.13332 4.44664L7.43332 0.999975C7.37873 0.887261 7.29349 0.792203 7.18738 0.72569C7.08126 0.659178 6.95856 0.623901 6.83332 0.623901C6.70808 0.623901 6.58538 0.659178 6.47926 0.72569C6.37314 0.792203 6.28791 0.887261 6.23332 0.999975L4.53332 4.43997L0.739985 4.99997C0.6166 5.01751 0.500601 5.06928 0.405152 5.14941C0.309703 5.22954 0.238625 5.33482 0.199985 5.45331C0.164615 5.56909 0.161441 5.69232 0.190803 5.80977C0.220166 5.92722 0.280957 6.03446 0.366652 6.11998L3.11999 8.78664L2.45332 12.5733C2.42952 12.6983 2.44198 12.8275 2.48923 12.9456C2.53648 13.0637 2.61655 13.1659 2.71999 13.24C2.8208 13.312 2.9397 13.3546 3.06335 13.3628C3.187 13.3711 3.3105 13.3447 3.41999 13.2866L6.83332 11.5066L10.2333 13.2933C10.3269 13.3461 10.4326 13.3737 10.54 13.3733C10.6812 13.3738 10.8189 13.3295 10.9333 13.2466C11.0367 13.1725 11.1168 13.0704 11.1641 12.9523C11.2113 12.8341 11.2238 12.705 11.2 12.58L10.5333 8.79331L13.2867 6.12664C13.3829 6.04509 13.454 5.93791 13.4918 5.81754C13.5296 5.69717 13.5324 5.56856 13.5 5.44664ZM9.39999 8.11331C9.3218 8.18893 9.26331 8.28254 9.22961 8.38596C9.19591 8.48938 9.18803 8.59947 9.20665 8.70664L9.68665 11.5L7.17999 10.1666C7.08353 10.1153 6.97593 10.0884 6.86665 10.0884C6.75737 10.0884 6.64977 10.1153 6.55332 10.1666L4.04665 11.5L4.52665 8.70664C4.54528 8.59947 4.53739 8.48938 4.5037 8.38596C4.47 8.28254 4.4115 8.18893 4.33332 8.11331L2.33332 6.11331L5.13999 5.70664C5.24798 5.69162 5.35065 5.65034 5.43898 5.58641C5.52732 5.52248 5.59862 5.43787 5.64665 5.33997L6.83332 2.79997L8.08665 5.34664C8.13468 5.44453 8.20599 5.52915 8.29432 5.59308C8.38265 5.657 8.48532 5.69829 8.59332 5.71331L11.4 6.11998L9.39999 8.11331Z" fill="#0129E3"/>
</svg>
