<svg width="70" height="70" viewBox="0 0 70 70" fill="none" xmlns="http://www.w3.org/2000/svg">
<rect width="70" height="70" rx="35" fill="#FF3E68"/>
<g clip-path="url(#clip0_513_367)">
<path d="M42.0467 36.9613C45.9323 33.077 45.9323 26.7566 42.0467 22.8723C38.1612 18.9879 31.8389 18.9879 27.9533 22.8723C24.0677 26.7566 24.0677 33.077 27.9533 36.9613C29.598 38.6055 31.6793 39.5535 33.8275 39.8058V43.1411H31.4827C30.8352 43.1411 30.3103 43.6659 30.3103 44.3132C30.3103 44.9605 30.8352 45.4852 31.4827 45.4852H33.8275V48.7869C33.8276 49.4342 34.3525 49.9589 35 49.9589C35.6475 49.9589 36.1724 49.4342 36.1724 48.7869V45.4852H38.5173C39.1648 45.4852 39.6897 44.9605 39.6897 44.3132C39.6897 43.6659 39.1648 43.1411 38.5173 43.1411H36.1724V39.8059C38.3207 39.5535 40.402 38.6055 42.0467 36.9613ZM29.6113 35.3037C26.64 32.3333 26.64 27.5002 29.6113 24.5298C32.5826 21.5595 37.4173 21.5593 40.3887 24.5298C43.3601 27.5002 43.3601 32.3333 40.3887 35.3037C37.4174 38.2741 32.5827 38.2741 29.6113 35.3037Z" fill="white"/>
</g>
<defs>
<clipPath id="clip0_513_367">
<rect width="30" height="30" fill="white" transform="translate(20 19.959)"/>
</clipPath>
</defs>
</svg>
