<svg width="10" height="10" viewBox="0 0 10 10" fill="none" xmlns="http://www.w3.org/2000/svg">
<path d="M5.8225 4.99999L9.4975 1.33082C9.60735 1.22098 9.66906 1.072 9.66906 0.916653C9.66906 0.76131 9.60735 0.61233 9.4975 0.502486C9.38766 0.392642 9.23868 0.330933 9.08334 0.330933C8.928 0.330933 8.77902 0.392642 8.66917 0.502486L5 4.17749L1.33084 0.502486C1.22099 0.392642 1.07201 0.330933 0.916672 0.330933C0.761329 0.330933 0.612349 0.392642 0.502505 0.502486C0.392661 0.61233 0.330952 0.76131 0.330952 0.916653C0.330952 1.072 0.392661 1.22098 0.502505 1.33082L4.17751 4.99999L0.502505 8.66915C0.44783 8.72338 0.404434 8.7879 0.374819 8.85898C0.345204 8.93007 0.329956 9.00631 0.329956 9.08332C0.329956 9.16033 0.345204 9.23657 0.374819 9.30766C0.404434 9.37874 0.44783 9.44326 0.502505 9.49749C0.556733 9.55216 0.621251 9.59556 0.692335 9.62517C0.76342 9.65479 0.839665 9.67003 0.916672 9.67003C0.993679 9.67003 1.06992 9.65479 1.14101 9.62517C1.21209 9.59556 1.27661 9.55216 1.33084 9.49749L5 5.82249L8.66917 9.49749C8.7234 9.55216 8.78792 9.59556 8.859 9.62517C8.93009 9.65479 9.00633 9.67003 9.08334 9.67003C9.16035 9.67003 9.23659 9.65479 9.30767 9.62517C9.37876 9.59556 9.44328 9.55216 9.4975 9.49749C9.55218 9.44326 9.59558 9.37874 9.62519 9.30766C9.65481 9.23657 9.67005 9.16033 9.67005 9.08332C9.67005 9.00631 9.65481 8.93007 9.62519 8.85898C9.59558 8.7879 9.55218 8.72338 9.4975 8.66915L5.8225 4.99999Z" fill="#DE303A"/>
</svg>
